HIERARCHY
ROOT Hips
{
	OFFSET -341.196167 -577.024780 88.986252
	CHANNELS 6 Xposition Yposition Zposition Zrotation Yrotation Xrotation
	JOINT Spine
	{
		OFFSET 0.000000 2.080078 8.814247
		CHANNELS 6 Xposition Yposition Zposition Zrotation Yrotation Xrotation
		JOINT Spine1
		{
			OFFSET 0.000000 0.000000 8.844139
			CHANNELS 6 Xposition Yposition Zposition Zrotation Yrotation Xrotation
			JOINT Spine2
			{
				OFFSET 0.000000 0.000000 11.682266
				CHANNELS 6 Xposition Yposition Zposition Zrotation Yrotation Xrotation
				JOINT Spine3
				{
					OFFSET 0.000000 0.000000 11.746704
					CHANNELS 6 Xposition Yposition Zposition Zrotation Yrotation Xrotation
					JOINT Neck
					{
						OFFSET 0.000000 0.000000 17.658264
						CHANNELS 6 Xposition Yposition Zposition Zrotation Yrotation Xrotation
						JOINT Neck1
						{
							OFFSET 0.000000 0.000000 5.101517
							CHANNELS 6 Xposition Yposition Zposition Zrotation Yrotation Xrotation
							JOINT Head
							{
								OFFSET 0.000000 0.000000 5.101517
								CHANNELS 6 Xposition Yposition Zposition Zrotation Yrotation Xrotation
								JOINT HeadEnd
								{
									OFFSET 0.000000 0.000000 11.655090
									CHANNELS 6 Xposition Yposition Zposition Zrotation Yrotation Xrotation
									End Site
									{
										OFFSET 0.000000 0.000000 0.100006
									}
								}
							}
						}
					}
					JOINT RightShoulder
					{
						OFFSET -2.625397 0.000000 11.175217
						CHANNELS 6 Xposition Yposition Zposition Zrotation Yrotation Xrotation
						JOINT RightArm
						{
							OFFSET 0.000000 0.000000 10.434723
							CHANNELS 6 Xposition Yposition Zposition Zrotation Yrotation Xrotation
							JOINT RightForeArm
							{
								OFFSET 0.000000 0.000000 29.628418
								CHANNELS 6 Xposition Yposition Zposition Zrotation Yrotation Xrotation
								JOINT RightHand
								{
									OFFSET 0.000000 0.000000 22.857605
									CHANNELS 6 Xposition Yposition Zposition Zrotation Yrotation Xrotation
									JOINT RightHandThumb1
									{
										OFFSET -2.867310 -2.944275 3.959564
										CHANNELS 6 Xposition Yposition Zposition Zrotation Yrotation Xrotation
										JOINT RightHandThumb2
										{
											OFFSET 0.000000 0.000000 3.350403
											CHANNELS 6 Xposition Yposition Zposition Zrotation Yrotation Xrotation
											JOINT RightHandThumb3
											{
												OFFSET 0.000000 0.000000 3.756516
												CHANNELS 6 Xposition Yposition Zposition Zrotation Yrotation Xrotation
												JOINT RightHandThumb4
												{
													OFFSET 0.000000 0.000000 3.147339
													CHANNELS 6 Xposition Yposition Zposition Zrotation Yrotation Xrotation
													End Site
													{
														OFFSET 0.000000 0.000000 0.100006
													}
												}
											}
										}
									}
									JOINT RightHandIndex1
									{
										OFFSET -0.086761 -2.345276 10.030899
										CHANNELS 6 Xposition Yposition Zposition Zrotation Yrotation Xrotation
										JOINT RightHandIndex2
										{
											OFFSET 0.000000 0.000000 4.061096
											CHANNELS 6 Xposition Yposition Zposition Zrotation Yrotation Xrotation
											JOINT RightHandIndex3
											{
												OFFSET 0.000000 0.000000 3.248871
												CHANNELS 6 Xposition Yposition Zposition Zrotation Yrotation Xrotation
												JOINT RightHandIndex4
												{
													OFFSET 0.000000 0.000000 2.639709
													CHANNELS 6 Xposition Yposition Zposition Zrotation Yrotation Xrotation
													End Site
													{
														OFFSET 0.000000 0.000000 0.100006
													}
												}
											}
										}
									}
									JOINT RightHandMiddle1
									{
										OFFSET 0.104095 -0.006775 9.502945
										CHANNELS 6 Xposition Yposition Zposition Zrotation Yrotation Xrotation
										JOINT RightHandMiddle2
										{
											OFFSET 0.000000 0.000000 4.568726
											CHANNELS 6 Xposition Yposition Zposition Zrotation Yrotation Xrotation
											JOINT RightHandMiddle3
											{
												OFFSET 0.000000 0.000000 3.654984
												CHANNELS 6 Xposition Yposition Zposition Zrotation Yrotation Xrotation
												JOINT RightHandMiddle4
												{
													OFFSET 0.000000 0.000000 2.741241
													CHANNELS 6 Xposition Yposition Zposition Zrotation Yrotation Xrotation
													End Site
													{
														OFFSET 0.000000 0.000000 0.100006
													}
												}
											}
										}
									}
									JOINT RightHandRing1
									{
										OFFSET 0.086761 2.267456 8.921707
										CHANNELS 6 Xposition Yposition Zposition Zrotation Yrotation Xrotation
										JOINT RightHandRing2
										{
											OFFSET 0.000000 0.000000 4.061096
											CHANNELS 6 Xposition Yposition Zposition Zrotation Yrotation Xrotation
											JOINT RightHandRing3
											{
												OFFSET 0.000000 0.000000 3.654984
												CHANNELS 6 Xposition Yposition Zposition Zrotation Yrotation Xrotation
												JOINT RightHandRing4
												{
													OFFSET 0.000000 0.000000 2.741241
													CHANNELS 6 Xposition Yposition Zposition Zrotation Yrotation Xrotation
													End Site
													{
														OFFSET 0.000000 0.000000 0.100006
													}
												}
											}
										}
									}
									JOINT RightHandPinky1
									{
										OFFSET -0.173492 4.467224 7.976990
										CHANNELS 6 Xposition Yposition Zposition Zrotation Yrotation Xrotation
										JOINT RightHandPinky2
										{
											OFFSET 0.000000 0.000000 3.350403
											CHANNELS 6 Xposition Yposition Zposition Zrotation Yrotation Xrotation
											JOINT RightHandPinky3
											{
												OFFSET 0.000000 0.000000 2.842758
												CHANNELS 6 Xposition Yposition Zposition Zrotation Yrotation Xrotation
												JOINT RightHandPinky4
												{
													OFFSET 0.000000 0.000000 2.639709
													CHANNELS 6 Xposition Yposition Zposition Zrotation Yrotation Xrotation
													End Site
													{
														OFFSET 0.000000 0.000000 0.100006
													}
												}
											}
										}
									}
									JOINT RightForeArmEnd
									{
										OFFSET 0.000000 0.000000 0.000000
										CHANNELS 6 Xposition Yposition Zposition Zrotation Yrotation Xrotation
										End Site
										{
											OFFSET 0.000000 0.000000 0.100006
										}
									}
								}
								JOINT RightArmEnd
								{
									OFFSET 0.000000 0.000000 0.000000
									CHANNELS 6 Xposition Yposition Zposition Zrotation Yrotation Xrotation
									End Site
									{
										OFFSET 0.000000 0.000000 0.100006
									}
								}
							}
						}
					}
					JOINT LeftShoulder
					{
						OFFSET 2.625397 0.000000 11.175217
						CHANNELS 6 Xposition Yposition Zposition Zrotation Yrotation Xrotation
						JOINT LeftArm
						{
							OFFSET 0.000000 0.000000 10.813629
							CHANNELS 6 Xposition Yposition Zposition Zrotation Yrotation Xrotation
							JOINT LeftForeArm
							{
								OFFSET 0.000000 0.000000 28.724777
								CHANNELS 6 Xposition Yposition Zposition Zrotation Yrotation Xrotation
								JOINT LeftHand
								{
									OFFSET 0.644379 0.328857 25.716171
									CHANNELS 6 Xposition Yposition Zposition Zrotation Yrotation Xrotation
									JOINT LeftHandThumb1
									{
										OFFSET 2.867310 -2.944275 3.959564
										CHANNELS 6 Xposition Yposition Zposition Zrotation Yrotation Xrotation
										JOINT LeftHandThumb2
										{
											OFFSET 0.000000 0.000000 3.350403
											CHANNELS 6 Xposition Yposition Zposition Zrotation Yrotation Xrotation
											JOINT LeftHandThumb3
											{
												OFFSET 0.000000 0.000000 3.756516
												CHANNELS 6 Xposition Yposition Zposition Zrotation Yrotation Xrotation
												JOINT LeftHandThumb4
												{
													OFFSET 0.000000 0.000000 3.100006
													CHANNELS 6 Xposition Yposition Zposition Zrotation Yrotation Xrotation
													End Site
													{
														OFFSET 0.000000 0.000000 0.100006
													}
												}
											}
										}
									}
									JOINT LeftHandIndex1
									{
										OFFSET 0.086761 -2.345276 10.030899
										CHANNELS 6 Xposition Yposition Zposition Zrotation Yrotation Xrotation
										JOINT LeftHandIndex2
										{
											OFFSET 0.000000 0.000000 4.061096
											CHANNELS 6 Xposition Yposition Zposition Zrotation Yrotation Xrotation
											JOINT LeftHandIndex3
											{
												OFFSET 0.000000 0.000000 3.248871
												CHANNELS 6 Xposition Yposition Zposition Zrotation Yrotation Xrotation
												JOINT LeftHandIndex4
												{
													OFFSET 0.000000 0.000000 2.639709
													CHANNELS 6 Xposition Yposition Zposition Zrotation Yrotation Xrotation
													End Site
													{
														OFFSET 0.000000 0.000000 0.100006
													}
												}
											}
										}
									}
									JOINT LeftHandMiddle1
									{
										OFFSET -0.104095 -0.006775 9.502945
										CHANNELS 6 Xposition Yposition Zposition Zrotation Yrotation Xrotation
										JOINT LeftHandMiddle2
										{
											OFFSET 0.000000 0.000000 4.568726
											CHANNELS 6 Xposition Yposition Zposition Zrotation Yrotation Xrotation
											JOINT LeftHandMiddle3
											{
												OFFSET 0.000000 0.000000 3.654984
												CHANNELS 6 Xposition Yposition Zposition Zrotation Yrotation Xrotation
												JOINT LeftHandMiddle4
												{
													OFFSET 0.000000 0.000000 2.741241
													CHANNELS 6 Xposition Yposition Zposition Zrotation Yrotation Xrotation
													End Site
													{
														OFFSET 0.000000 0.000000 0.100006
													}
												}
											}
										}
									}
									JOINT LeftHandRing1
									{
										OFFSET -0.086761 2.267456 8.921707
										CHANNELS 6 Xposition Yposition Zposition Zrotation Yrotation Xrotation
										JOINT LeftHandRing2
										{
											OFFSET 0.000000 0.000000 4.061096
											CHANNELS 6 Xposition Yposition Zposition Zrotation Yrotation Xrotation
											JOINT LeftHandRing3
											{
												OFFSET 0.000000 0.000000 3.654984
												CHANNELS 6 Xposition Yposition Zposition Zrotation Yrotation Xrotation
												JOINT LeftHandRing4
												{
													OFFSET 0.000000 0.000000 2.741241
													CHANNELS 6 Xposition Yposition Zposition Zrotation Yrotation Xrotation
													End Site
													{
														OFFSET 0.000000 0.000000 0.100006
													}
												}
											}
										}
									}
									JOINT LeftHandPinky1
									{
										OFFSET 0.173492 4.467224 7.976990
										CHANNELS 6 Xposition Yposition Zposition Zrotation Yrotation Xrotation
										JOINT LeftHandPinky2
										{
											OFFSET 0.000000 0.000000 3.350403
											CHANNELS 6 Xposition Yposition Zposition Zrotation Yrotation Xrotation
											JOINT LeftHandPinky3
											{
												OFFSET 0.000000 0.000000 2.842758
												CHANNELS 6 Xposition Yposition Zposition Zrotation Yrotation Xrotation
												JOINT LeftHandPinky4
												{
													OFFSET 0.000000 0.000000 2.639709
													CHANNELS 6 Xposition Yposition Zposition Zrotation Yrotation Xrotation
													End Site
													{
														OFFSET 0.000000 0.000000 0.100006
													}
												}
											}
										}
									}
									JOINT LeftForeArmEnd
									{
										OFFSET 0.000000 0.000000 0.000000
										CHANNELS 6 Xposition Yposition Zposition Zrotation Yrotation Xrotation
										End Site
										{
											OFFSET 0.000000 0.000000 0.100006
										}
									}
								}
								JOINT LeftArmEnd
								{
									OFFSET 0.000000 0.000000 0.000000
									CHANNELS 6 Xposition Yposition Zposition Zrotation Yrotation Xrotation
									End Site
									{
										OFFSET 0.000000 0.000000 0.100006
									}
								}
							}
						}
					}
				}
			}
		}
	}
	JOINT RightUpLeg
	{
		OFFSET -11.289948 0.000000 0.000000
		CHANNELS 6 Xposition Yposition Zposition Zrotation Yrotation Xrotation
		JOINT RightLeg
		{
			OFFSET 0.000000 0.000000 -38.200329
			CHANNELS 6 Xposition Yposition Zposition Zrotation Yrotation Xrotation
			JOINT RightFoot
			{
				OFFSET 0.000000 0.000000 -39.900856
				CHANNELS 6 Xposition Yposition Zposition Zrotation Yrotation Xrotation
				JOINT RightToeBase
				{
					OFFSET 0.000000 -15.261658 0.000001
					CHANNELS 6 Xposition Yposition Zposition Zrotation Yrotation Xrotation
					JOINT RightToeBaseEnd
					{
						OFFSET 0.000000 -7.370728 0.000000
						CHANNELS 6 Xposition Yposition Zposition Zrotation Yrotation Xrotation
						End Site
						{
							OFFSET 0.000000 0.000000 0.100000
						}
					}
				}
				JOINT RightLegEnd
				{
					OFFSET 0.000000 0.000000 0.000000
					CHANNELS 6 Xposition Yposition Zposition Zrotation Yrotation Xrotation
					End Site
					{
						OFFSET 0.000000 0.000000 0.100000
					}
				}
			}
			JOINT RightUpLegEnd
			{
				OFFSET 0.000000 0.000000 0.000000
				CHANNELS 6 Xposition Yposition Zposition Zrotation Yrotation Xrotation
				End Site
				{
					OFFSET 0.000000 0.000000 0.099998
				}
			}
		}
	}
	JOINT LeftUpLeg
	{
		OFFSET 11.315674 0.000000 0.000000
		CHANNELS 6 Xposition Yposition Zposition Zrotation Yrotation Xrotation
		JOINT LeftLeg
		{
			OFFSET 0.000000 0.000000 -38.200329
			CHANNELS 6 Xposition Yposition Zposition Zrotation Yrotation Xrotation
			JOINT LeftFoot
			{
				OFFSET 0.000000 0.000000 -39.900856
				CHANNELS 6 Xposition Yposition Zposition Zrotation Yrotation Xrotation
				JOINT LeftToeBase
				{
					OFFSET 0.000000 -15.261658 0.000001
					CHANNELS 6 Xposition Yposition Zposition Zrotation Yrotation Xrotation
					JOINT LeftToeBaseEnd
					{
						OFFSET 0.000000 -7.539978 0.000000
						CHANNELS 6 Xposition Yposition Zposition Zrotation Yrotation Xrotation
						End Site
						{
							OFFSET 0.000000 0.000000 0.100000
						}
					}
				}
				JOINT LeftLegEnd
				{
					OFFSET 0.000000 0.000000 0.000000
					CHANNELS 6 Xposition Yposition Zposition Zrotation Yrotation Xrotation
					End Site
					{
						OFFSET 0.000000 0.000000 0.100000
					}
				}
			}
			JOINT LeftUpLegEnd
			{
				OFFSET 0.000000 0.000000 0.000000
				CHANNELS 6 Xposition Yposition Zposition Zrotation Yrotation Xrotation
				End Site
				{
					OFFSET 0.000000 0.000000 0.099998
				}
			}
		}
	}
}
MOTION
Frames: 2
Frame Time: 0.016667
-28.030731 -17.033752 86.684113 12.184964 1.481527 -4.516001 -0.000039 2.080048 8.814240 -0.122273 -2.273771 5.534330 0.000006 0.000008 8.844148 0.304407 1.385059 2.687082 0.000022 -0.000008 11.682268 -1.458513 3.118295 3.278592 0.000010 0.000015 11.746707 -1.459987 4.494433 0.924762 0.000019 -0.000009 17.658262 -7.938831 -8.579565 -0.408370 0.000008 0.000006 5.101535 -5.750568 0.553233 -8.204073 0.000013 0.000026 5.101514 -0.890891 -1.027017 -22.051875 -0.000033 -0.000001 11.655057 0.000000 -0.000000 0.000003 -2.625380 -0.000020 11.175242 7.896263 -88.538048 -0.384717 0.000000 0.000021 10.434723 49.071593 -23.490684 -21.736987 0.000015 -0.000008 29.628382 40.769450 -0.224597 48.800086 0.000034 -0.000094 22.857574 47.766771 6.195332 9.007074 -2.867298 -2.944290 3.959602 31.742607 -16.402168 52.841861 -0.000011 0.000023 3.350418 -10.770507 7.598574 -19.674264 0.000004 0.000015 3.756542 -7.196798 5.677150 -13.491767 0.000034 0.000003 3.147327 -0.000000 0.000003 -0.000001 -0.086748 -2.345264 10.030956 -9.243914 -3.804852 18.919098 0.000012 -0.000076 4.061096 0.474120 -4.585401 0.645836 -0.000009 -0.000028 3.248893 -0.025849 -4.585394 0.645822 0.000008 0.000010 2.639699 0.000001 0.000003 -0.000003 0.104103 -0.006767 9.502975 -4.492627 -5.321027 16.492509 -0.000021 0.000014 4.568726 0.490813 -4.475071 0.235028 0.000015 -0.000016 3.654979 -0.009178 -4.475227 0.235136 0.000000 0.000002 2.741268 0.000001 0.000003 -0.000003 0.086723 2.267433 8.921776 3.079400 -8.582175 13.906240 -0.000027 -0.000023 4.061112 -0.984942 -5.304937 -0.325390 -0.000007 -0.000010 3.654999 0.015073 -5.304945 -0.325398 -0.000005 0.000000 2.741262 -0.000000 -0.000002 0.000000 -0.173494 4.467228 7.977020 11.571239 -10.097617 8.955880 -0.000008 -0.000003 3.350404 -1.949065 -5.468399 -1.066249 0.000003 0.000077 2.842780 0.050925 -5.468401 -1.066266 -0.000041 -0.000012 2.639711 0.000001 -0.000001 0.000001 -0.000000 0.000003 0.000011 -0.000000 0.000000 -0.000001 0.000008 -0.000002 0.000009 0.000000 -0.000001 0.000001 2.625422 0.000003 11.175222 -4.361262 89.156447 -0.141379 -0.000034 -0.000010 10.813644 -23.946092 58.905040 -28.898250 0.000008 -0.000031 28.724728 -21.136852 0.803868 37.663282 0.644295 0.328903 25.716160 -29.647385 -21.114893 -2.346221 2.867302 -2.944290 3.959579 -32.544567 26.594207 38.430824 0.000008 -0.000015 3.350384 33.283662 -10.408541 -56.106370 -0.000008 0.000000 3.756516 22.156828 -10.832827 -38.322805 -0.000010 -0.000001 3.100001 0.000000 0.000003 0.000001 0.086739 -2.345290 10.030893 15.150213 83.653616 3.192392 -0.000019 0.000023 4.061096 -7.194737 59.043324 -13.538956 0.000023 -0.000063 3.248863 -7.694896 59.043318 -13.539627 -0.000009 0.000019 2.639715 -0.000003 0.000001 0.000002 -0.104149 -0.006744 9.502932 40.620354 80.094760 34.480786 -0.000015 0.000001 4.568724 -2.144677 57.912655 -4.782685 -0.000017 -0.000020 3.654991 -2.652260 57.912457 -4.789408 -0.000012 0.000007 2.741238 -0.000000 0.000001 0.000001 -0.086738 2.267452 8.921718 78.201609 75.190192 78.508851 0.000006 0.000018 4.061087 2.669180 60.713763 6.259409 0.000008 0.000021 3.654991 3.664513 60.713852 6.256915 0.000004 -0.000008 2.741235 0.000001 0.000001 -0.000002 0.173464 4.467197 7.976960 76.372150 66.471852 84.338370 -0.000015 -0.000084 3.350433 8.479244 58.593789 18.564280 0.000011 -0.000095 2.842796 10.479260 58.593795 18.564273 -0.000069 -0.000060 2.639724 -0.000000 0.000001 0.000004 -0.000009 -0.000009 0.000002 0.000001 -0.000002 0.000003 -0.000021 0.000006 -0.000006 -0.000000 0.000000 0.000002 -11.289951 -0.000005 -0.000011 -17.495581 9.209278 -5.055634 -0.000011 0.000060 -38.200340 -1.760334 0.661047 20.575764 0.000022 -0.000029 -39.900867 -14.263722 -9.026901 18.846691 -0.000011 -15.261644 0.000004 2.984084 1.400579 -16.842618 0.000002 -7.370735 0.000000 0.000001 0.000000 0.000001 -0.000010 -0.000008 -0.000002 0.000001 0.000001 0.000003 0.000004 0.000006 -0.000003 -0.000001 0.000001 0.000001 11.315639 0.000019 -0.000004 -6.904905 -16.605559 3.510596 0.000003 0.000053 -38.200306 0.532860 -0.263813 26.338109 -0.000005 -0.000006 -39.900871 10.386628 2.214846 17.064294 0.000002 -15.261715 0.000014 -0.450632 -0.555727 -22.394800 -0.000021 -7.539972 -0.000002 -0.000001 -0.000000 0.000001 -0.000022 0.000061 -0.000000 -0.000000 0.000001 -0.000006 -0.000004 -0.000000 -0.000003 -0.000000 -0.000001 -0.000001 
-29.274658 -17.698914 87.237083 12.827510 1.150396 -4.553040 -0.000004 2.080092 8.814258 -0.092497 -2.105564 5.420706 0.000001 0.000025 8.844151 0.328941 1.499133 2.500783 0.000010 -0.000017 11.682287 -1.566626 3.154927 3.292093 -0.000010 -0.000021 11.746714 -1.503918 4.492638 1.130597 -0.000015 -0.000009 17.658262 -6.910028 -8.012544 -0.446133 -0.000018 0.000004 5.101518 -4.672631 0.394730 -7.984775 0.000011 0.000032 5.101551 -0.888883 -0.823693 -22.296017 -0.000032 0.000000 11.655082 -0.000000 0.000000 0.000002 -2.625389 -0.000011 11.175190 7.275637 -88.763649 -0.474158 -0.000038 0.000023 10.434731 50.005143 -24.459370 -25.601924 0.000008 -0.000015 29.628445 40.585964 -0.404677 50.441664 -0.000008 -0.000062 22.857590 48.702729 7.134299 10.388567 -2.867306 -2.944305 3.959549 31.690736 -16.746664 52.306822 0.000004 0.000015 3.350452 -11.527929 7.943511 -20.956274 0.000019 0.000069 3.756496 -7.690608 5.973192 -14.361035 -0.000012 0.000004 3.147342 -0.000000 0.000000 -0.000000 -0.086754 -2.345242 10.030918 -9.857414 -6.953136 19.426252 -0.000009 -0.000057 4.061131 0.442449 -6.829877 0.964495 -0.000004 -0.000026 3.248893 -0.057557 -6.829851 0.964498 0.000002 0.000010 2.639751 -0.000002 0.000003 -0.000003 0.104080 -0.006796 9.502934 -5.029582 -8.205618 17.026033 -0.000010 0.000016 4.568733 0.480330 -6.542391 0.344360 -0.000017 -0.000087 3.654994 -0.019700 -6.542388 0.344375 -0.000008 -0.000003 2.741280 -0.000000 0.000001 -0.000002 0.086746 2.267473 8.921738 2.643210 -11.152359 14.473132 -0.000014 0.000002 4.061124 -0.972971 -7.093130 -0.436067 0.000004 -0.000006 3.655023 0.027041 -7.093128 -0.436067 -0.000009 -0.000008 2.741274 0.000001 0.000000 -0.000002 -0.173489 4.467239 7.976974 11.240549 -12.407229 9.770615 0.000000 0.000023 3.350410 -1.918409 -6.913723 -1.350564 0.000004 0.000013 2.842752 0.081584 -6.913707 -1.350580 0.000010 0.000012 2.639727 -0.000001 0.000001 -0.000004 -0.000017 -0.000017 -0.000013 0.000003 -0.000001 0.000002 0.000004 -0.000003 0.000002 0.000001 0.000000 -0.000001 2.625388 -0.000014 11.175199 -4.123498 89.232474 -0.118761 0.000043 0.000013 10.813683 -24.058346 59.067203 -28.914458 0.000015 -0.000015 28.724747 -21.111543 0.736880 38.104724 0.644379 0.328896 25.716187 -30.281562 -20.904081 -2.267193 2.867283 -2.944275 3.959579 -32.544581 26.594207 38.430807 -0.000023 0.000000 3.350418 33.283652 -10.408547 -56.106364 0.000008 0.000000 3.756496 22.156833 -10.832838 -38.322812 -0.000019 0.000002 3.100016 -0.000000 0.000002 0.000000 0.086769 -2.345243 10.030901 15.054367 83.662687 3.489773 -0.000027 0.000008 4.061127 -7.181424 59.008866 -13.522251 -0.000011 0.000010 3.248863 -7.681436 59.008866 -13.522811 0.000001 0.000009 2.639714 -0.000003 0.000000 -0.000002 -0.104115 -0.006784 9.502945 40.535052 80.077329 34.783503 -0.000042 0.000031 4.568722 -2.138594 57.880416 -4.777438 0.000006 0.000011 3.654980 -2.648273 57.880232 -4.785635 -0.000013 0.000017 2.741243 -0.000002 0.000004 0.000001 -0.086744 2.267457 8.921697 77.553390 75.153384 78.122877 0.000010 0.000022 4.061090 2.645993 60.609179 6.235083 0.000004 -0.000002 3.654972 3.645820 60.609227 6.235712 -0.000006 -0.000020 2.741246 0.000003 0.000000 -0.000003 0.173477 4.467228 7.976973 75.757077 66.408666 83.726788 0.000000 -0.000063 3.350449 8.371498 58.425568 18.437939 -0.000004 -0.000086 2.842804 10.371442 58.425547 18.437863 -0.000018 -0.000084 2.639719 0.000002 -0.000002 -0.000004 0.000004 -0.000000 -0.000011 0.000002 -0.000001 0.000002 0.000016 -0.000015 0.000021 0.000002 0.000002 0.000001 -11.289930 -0.000055 -0.000006 -17.058392 8.632382 -3.043417 -0.000005 -0.000049 -38.200329 -1.749217 0.572419 18.114739 -0.000029 -0.000022 -39.900856 -15.520128 -8.479186 19.401887 -0.000001 -15.261644 0.000009 2.796425 1.569733 -16.878101 -0.000021 -7.370729 0.000001 0.000000 0.000000 -0.000000 0.000005 -0.000006 0.000001 0.000001 0.000001 0.000002 -0.000001 0.000001 -0.000002 -0.000000 -0.000001 0.000001 11.315670 0.000010 0.000019 -5.139422 -14.710704 3.254956 0.000018 -0.000029 -38.200317 0.699182 -0.338478 25.830302 0.000017 -0.000078 -39.900841 9.505162 3.092049 16.838552 -0.000001 -15.261691 0.000022 -0.153168 -1.605860 -22.353814 -0.000030 -7.539922 -0.000000 0.000001 0.000001 -0.000000 -0.000022 0.000061 0.000001 -0.000000 -0.000001 0.000004 0.000013 0.000003 -0.000002 -0.000000 0.000001 0.000000 
